<svg xmlns="http://www.w3.org/2000/svg" width="1200" height="630" viewBox="0 0 1200 630">
  <defs>
    <linearGradient id="g" x1="0" x2="1" y1="0" y2="1">
      <stop stop-color="#0ea5e9" offset="0"/>
      <stop stop-color="#8b5cf6" offset="1"/>
    </linearGradient>
  </defs>
  <rect width="1200" height="630" fill="#0b1220"/>
  <rect x="40" y="40" width="1120" height="550" rx="24" fill="url(#g)" opacity="0.15"/>
  <g transform="translate(80,90)">
    <rect width="340" height="450" rx="16" fill="#0f172a" stroke="#334155"/>
    <rect x="20" y="24" width="300" height="24" rx="6" fill="#1e293b"/>
    <rect x="20" y="70" width="220" height="16" rx="4" fill="#1e293b"/>
    <rect x="20" y="100" width="280" height="16" rx="4" fill="#1e293b"/>
    <rect x="20" y="140" width="160" height="16" rx="4" fill="#1e293b"/>
  </g>
  <g transform="translate(460,90)">
    <rect width="340" height="450" rx="16" fill="#0f172a" stroke="#334155"/>
    <rect x="20" y="24" width="300" height="24" rx="6" fill="#1e293b"/>
    <rect x="20" y="70" width="220" height="16" rx="4" fill="#1e293b"/>
    <rect x="20" y="100" width="280" height="16" rx="4" fill="#1e293b"/>
    <rect x="20" y="140" width="160" height="16" rx="4" fill="#1e293b"/>
  </g>
  <g transform="translate(840,90)">
    <rect width="240" height="450" rx="16" fill="#0f172a" stroke="#334155"/>
    <rect x="20" y="24" width="200" height="24" rx="6" fill="#1e293b"/>
    <rect x="20" y="70" width="180" height="16" rx="4" fill="#1e293b"/>
    <rect x="20" y="100" width="180" height="16" rx="4" fill="#1e293b"/>
  </g>
  <text x="80" y="580" fill="#e2e8f0" font-family="Inter,Segoe UI,Arial" font-size="42" font-weight="700">shop-saver · backend · frontend · service</text>
</svg>
